<mxfile host="app.diagrams.net" agent="Mozilla/5.0 (Macintosh; Intel Mac OS X 10_15_7) AppleWebKit/537.36 (KHTML, like Gecko) Chrome/129.0.0.0 Safari/537.36" version="26.0.14">
  <diagram name="Page-1" id="Rt2gjxt__m3kLgCPaDpE">
    <mxGraphModel dx="1754" dy="941" grid="1" gridSize="10" guides="1" tooltips="1" connect="1" arrows="1" fold="1" page="1" pageScale="1" pageWidth="827" pageHeight="1169" math="0" shadow="0">
      <root>
        <mxCell id="0" />
        <mxCell id="1" parent="0" />
        <mxCell id="9paTq_0o_kBmyaApCOEQ-1" value="&lt;b&gt;Block n-1&lt;/b&gt;" style="rounded=0;whiteSpace=wrap;html=1;strokeWidth=2;" vertex="1" parent="1">
          <mxGeometry x="255.5" y="56" width="80" height="60" as="geometry" />
        </mxCell>
        <mxCell id="9paTq_0o_kBmyaApCOEQ-2" value="&lt;b&gt;Block n&lt;/b&gt;" style="rounded=0;whiteSpace=wrap;html=1;strokeWidth=2;" vertex="1" parent="1">
          <mxGeometry x="375.5" y="56" width="80" height="60" as="geometry" />
        </mxCell>
        <mxCell id="9paTq_0o_kBmyaApCOEQ-3" value="" style="endArrow=none;dashed=1;html=1;rounded=0;entryX=0;entryY=0.5;entryDx=0;entryDy=0;" edge="1" parent="1" source="9paTq_0o_kBmyaApCOEQ-1" target="9paTq_0o_kBmyaApCOEQ-2">
          <mxGeometry width="50" height="50" relative="1" as="geometry">
            <mxPoint x="175.5" y="86" as="sourcePoint" />
            <mxPoint x="235.5" y="85.5" as="targetPoint" />
          </mxGeometry>
        </mxCell>
        <mxCell id="9paTq_0o_kBmyaApCOEQ-4" value="&lt;b&gt;Block n-2&lt;/b&gt;" style="rounded=0;whiteSpace=wrap;html=1;strokeWidth=2;" vertex="1" parent="1">
          <mxGeometry x="135.5" y="56" width="80" height="60" as="geometry" />
        </mxCell>
        <mxCell id="9paTq_0o_kBmyaApCOEQ-5" value="" style="endArrow=none;dashed=1;html=1;rounded=0;exitX=1;exitY=0.5;exitDx=0;exitDy=0;entryX=0;entryY=0.5;entryDx=0;entryDy=0;" edge="1" parent="1" source="9paTq_0o_kBmyaApCOEQ-4" target="9paTq_0o_kBmyaApCOEQ-1">
          <mxGeometry width="50" height="50" relative="1" as="geometry">
            <mxPoint x="345.5" y="96" as="sourcePoint" />
            <mxPoint x="255.5" y="86" as="targetPoint" />
          </mxGeometry>
        </mxCell>
        <mxCell id="9paTq_0o_kBmyaApCOEQ-6" value="" style="shape=curlyBracket;whiteSpace=wrap;html=1;rounded=1;labelPosition=left;verticalLabelPosition=middle;align=right;verticalAlign=middle;rotation=90;strokeWidth=2;" vertex="1" parent="1">
          <mxGeometry x="205.5" y="-83" width="20" height="250" as="geometry" />
        </mxCell>
        <mxCell id="9paTq_0o_kBmyaApCOEQ-7" value="&lt;b&gt;Confirmed&lt;/b&gt;" style="text;html=1;align=center;verticalAlign=middle;resizable=0;points=[];autosize=1;strokeColor=none;fillColor=none;" vertex="1" parent="1">
          <mxGeometry x="175.5" y="11" width="80" height="30" as="geometry" />
        </mxCell>
        <mxCell id="9paTq_0o_kBmyaApCOEQ-8" value="" style="shape=actor;whiteSpace=wrap;html=1;strokeWidth=2;fillColor=#e1d5e7;strokeColor=#9673a6;" vertex="1" parent="1">
          <mxGeometry x="281" y="177" width="40" height="50" as="geometry" />
        </mxCell>
        <mxCell id="9paTq_0o_kBmyaApCOEQ-9" value="" style="shape=actor;whiteSpace=wrap;html=1;strokeWidth=2;fillColor=#dae8fc;strokeColor=#6c8ebf;" vertex="1" parent="1">
          <mxGeometry x="399.25" y="313" width="40" height="50" as="geometry" />
        </mxCell>
        <mxCell id="9paTq_0o_kBmyaApCOEQ-10" value="" style="shape=actor;whiteSpace=wrap;html=1;strokeWidth=2;fillColor=#dae8fc;strokeColor=#6c8ebf;" vertex="1" parent="1">
          <mxGeometry x="225.25" y="313" width="40" height="50" as="geometry" />
        </mxCell>
        <mxCell id="9paTq_0o_kBmyaApCOEQ-11" value="" style="shape=actor;whiteSpace=wrap;html=1;strokeWidth=2;fillColor=#dae8fc;strokeColor=#6c8ebf;" vertex="1" parent="1">
          <mxGeometry x="105.25" y="313" width="40" height="50" as="geometry" />
        </mxCell>
        <mxCell id="9paTq_0o_kBmyaApCOEQ-12" value="" style="shape=actor;whiteSpace=wrap;html=1;strokeWidth=2;fillColor=#fff2cc;strokeColor=#d6b656;" vertex="1" parent="1">
          <mxGeometry x="105.25" y="457" width="40" height="50" as="geometry" />
        </mxCell>
        <mxCell id="9paTq_0o_kBmyaApCOEQ-13" value="" style="shape=actor;whiteSpace=wrap;html=1;strokeWidth=2;fillColor=#fff2cc;strokeColor=#d6b656;" vertex="1" parent="1">
          <mxGeometry x="284.25" y="457" width="40" height="50" as="geometry" />
        </mxCell>
        <mxCell id="9paTq_0o_kBmyaApCOEQ-14" value="" style="shape=actor;whiteSpace=wrap;html=1;strokeWidth=2;fillColor=#fff2cc;strokeColor=#d6b656;" vertex="1" parent="1">
          <mxGeometry x="226.75" y="457" width="40" height="50" as="geometry" />
        </mxCell>
        <mxCell id="9paTq_0o_kBmyaApCOEQ-15" value="" style="shape=actor;whiteSpace=wrap;html=1;strokeWidth=2;fillColor=#fff2cc;strokeColor=#d6b656;" vertex="1" parent="1">
          <mxGeometry x="165.25" y="457" width="40" height="50" as="geometry" />
        </mxCell>
        <mxCell id="9paTq_0o_kBmyaApCOEQ-16" value="" style="shape=actor;whiteSpace=wrap;html=1;strokeWidth=2;fillColor=#fff2cc;strokeColor=#d6b656;" vertex="1" parent="1">
          <mxGeometry x="399.25" y="457" width="40" height="50" as="geometry" />
        </mxCell>
        <mxCell id="9paTq_0o_kBmyaApCOEQ-17" value="" style="group" vertex="1" connectable="0" parent="1">
          <mxGeometry x="92.5" y="86" width="26" height="6" as="geometry" />
        </mxCell>
        <mxCell id="9paTq_0o_kBmyaApCOEQ-18" value="" style="ellipse;shape=doubleEllipse;whiteSpace=wrap;html=1;aspect=fixed;fillColor=#000000;" vertex="1" parent="9paTq_0o_kBmyaApCOEQ-17">
          <mxGeometry x="-1" width="6" height="6" as="geometry" />
        </mxCell>
        <mxCell id="9paTq_0o_kBmyaApCOEQ-19" value="" style="ellipse;shape=doubleEllipse;whiteSpace=wrap;html=1;aspect=fixed;fillColor=#000000;" vertex="1" parent="9paTq_0o_kBmyaApCOEQ-17">
          <mxGeometry x="10" width="6" height="6" as="geometry" />
        </mxCell>
        <mxCell id="9paTq_0o_kBmyaApCOEQ-20" value="" style="ellipse;shape=doubleEllipse;whiteSpace=wrap;html=1;aspect=fixed;fillColor=#000000;" vertex="1" parent="9paTq_0o_kBmyaApCOEQ-17">
          <mxGeometry x="21" width="6" height="6" as="geometry" />
        </mxCell>
        <mxCell id="9paTq_0o_kBmyaApCOEQ-21" value="" style="group" vertex="1" connectable="0" parent="1">
          <mxGeometry x="356.25" y="349" width="26" height="6" as="geometry" />
        </mxCell>
        <mxCell id="9paTq_0o_kBmyaApCOEQ-22" value="" style="ellipse;shape=doubleEllipse;whiteSpace=wrap;html=1;aspect=fixed;fillColor=#000000;" vertex="1" parent="9paTq_0o_kBmyaApCOEQ-21">
          <mxGeometry x="-1" width="6" height="6" as="geometry" />
        </mxCell>
        <mxCell id="9paTq_0o_kBmyaApCOEQ-23" value="" style="ellipse;shape=doubleEllipse;whiteSpace=wrap;html=1;aspect=fixed;fillColor=#000000;" vertex="1" parent="9paTq_0o_kBmyaApCOEQ-21">
          <mxGeometry x="10" width="6" height="6" as="geometry" />
        </mxCell>
        <mxCell id="9paTq_0o_kBmyaApCOEQ-24" value="" style="ellipse;shape=doubleEllipse;whiteSpace=wrap;html=1;aspect=fixed;fillColor=#000000;" vertex="1" parent="9paTq_0o_kBmyaApCOEQ-21">
          <mxGeometry x="21" width="6" height="6" as="geometry" />
        </mxCell>
        <mxCell id="9paTq_0o_kBmyaApCOEQ-25" value="" style="endArrow=classic;html=1;rounded=0;exitX=0.5;exitY=0;exitDx=0;exitDy=0;entryX=0.5;entryY=1;entryDx=0;entryDy=0;" edge="1" parent="1" source="9paTq_0o_kBmyaApCOEQ-11" target="9paTq_0o_kBmyaApCOEQ-8">
          <mxGeometry width="50" height="50" relative="1" as="geometry">
            <mxPoint x="186" y="287" as="sourcePoint" />
            <mxPoint x="236" y="237" as="targetPoint" />
            <Array as="points" />
          </mxGeometry>
        </mxCell>
        <mxCell id="9paTq_0o_kBmyaApCOEQ-26" value="" style="endArrow=classic;html=1;rounded=0;exitX=0.5;exitY=0;exitDx=0;exitDy=0;" edge="1" parent="1" source="9paTq_0o_kBmyaApCOEQ-10">
          <mxGeometry width="50" height="50" relative="1" as="geometry">
            <mxPoint x="251" y="277" as="sourcePoint" />
            <mxPoint x="301" y="227" as="targetPoint" />
          </mxGeometry>
        </mxCell>
        <mxCell id="9paTq_0o_kBmyaApCOEQ-27" value="" style="endArrow=classic;html=1;rounded=0;exitX=0.335;exitY=0.068;exitDx=0;exitDy=0;strokeWidth=2;exitPerimeter=0;" edge="1" parent="1" source="9paTq_0o_kBmyaApCOEQ-9">
          <mxGeometry width="50" height="50" relative="1" as="geometry">
            <mxPoint x="341" y="407" as="sourcePoint" />
            <mxPoint x="301" y="227" as="targetPoint" />
          </mxGeometry>
        </mxCell>
        <mxCell id="9paTq_0o_kBmyaApCOEQ-28" value="&lt;b&gt;Header&lt;/b&gt;" style="rounded=1;whiteSpace=wrap;html=1;" vertex="1" parent="1">
          <mxGeometry x="160.25" y="307" width="50" height="20" as="geometry" />
        </mxCell>
        <mxCell id="9paTq_0o_kBmyaApCOEQ-29" value="&lt;div&gt;&lt;span style=&quot;background-color: transparent; color: light-dark(rgb(0, 0, 0), rgb(255, 255, 255));&quot;&gt;&lt;font style=&quot;font-size: 9px;&quot;&gt;0x4837...Ya5f97&lt;/font&gt;&lt;/span&gt;&lt;/div&gt;&lt;div&gt;&lt;div&gt;&lt;font size=&quot;1&quot;&gt;to&lt;/font&gt;&lt;/div&gt;&lt;/div&gt;&lt;div&gt;&lt;div&gt;&lt;font style=&quot;font-size: 9px;&quot;&gt;0x5050...bf6C9&lt;/font&gt;&lt;/div&gt;&lt;/div&gt;" style="text;html=1;align=center;verticalAlign=middle;resizable=0;points=[];autosize=1;strokeColor=none;fillColor=none;" vertex="1" parent="1">
          <mxGeometry x="140.25" y="322" width="90" height="60" as="geometry" />
        </mxCell>
        <mxCell id="9paTq_0o_kBmyaApCOEQ-30" value="Header" style="rounded=1;whiteSpace=wrap;html=1;fontStyle=1" vertex="1" parent="1">
          <mxGeometry x="280.25" y="307" width="50" height="20" as="geometry" />
        </mxCell>
        <mxCell id="9paTq_0o_kBmyaApCOEQ-31" value="Header" style="rounded=1;whiteSpace=wrap;html=1;fontStyle=1" vertex="1" parent="1">
          <mxGeometry x="454.75" y="307" width="50" height="20" as="geometry" />
        </mxCell>
        <mxCell id="9paTq_0o_kBmyaApCOEQ-32" value="&lt;font style=&quot;font-size: 9px;&quot;&gt;0x9F23...07F66B&lt;/font&gt;&lt;div&gt;&lt;font size=&quot;1&quot;&gt;to&lt;/font&gt;&lt;/div&gt;&lt;div&gt;&lt;font style=&quot;font-size: 9px;&quot;&gt;0x68F7...Zc2981&lt;/font&gt;&lt;br&gt;&lt;/div&gt;" style="text;html=1;align=center;verticalAlign=middle;resizable=0;points=[];autosize=1;strokeColor=none;fillColor=none;" vertex="1" parent="1">
          <mxGeometry x="434.75" y="322" width="90" height="60" as="geometry" />
        </mxCell>
        <mxCell id="9paTq_0o_kBmyaApCOEQ-33" value="" style="endArrow=classic;html=1;rounded=0;exitX=0.9;exitY=0.5;exitDx=0;exitDy=0;exitPerimeter=0;entryX=0.5;entryY=1;entryDx=0;entryDy=0;" edge="1" parent="1" source="9paTq_0o_kBmyaApCOEQ-8" target="9paTq_0o_kBmyaApCOEQ-2">
          <mxGeometry width="50" height="50" relative="1" as="geometry">
            <mxPoint x="341" y="307" as="sourcePoint" />
            <mxPoint x="391" y="257" as="targetPoint" />
          </mxGeometry>
        </mxCell>
        <mxCell id="9paTq_0o_kBmyaApCOEQ-34" value="" style="endArrow=classic;html=1;rounded=0;exitX=0.25;exitY=1;exitDx=0;exitDy=0;entryX=0.75;entryY=0.25;entryDx=0;entryDy=0;entryPerimeter=0;" edge="1" parent="1" source="9paTq_0o_kBmyaApCOEQ-2" target="9paTq_0o_kBmyaApCOEQ-8">
          <mxGeometry width="50" height="50" relative="1" as="geometry">
            <mxPoint x="341" y="307" as="sourcePoint" />
            <mxPoint x="391" y="257" as="targetPoint" />
          </mxGeometry>
        </mxCell>
        <mxCell id="9paTq_0o_kBmyaApCOEQ-35" value="" style="endArrow=classic;html=1;rounded=0;exitX=0.929;exitY=1.036;exitDx=0;exitDy=0;exitPerimeter=0;strokeWidth=2;entryX=0.635;entryY=0.023;entryDx=0;entryDy=0;entryPerimeter=0;" edge="1" parent="1" source="9paTq_0o_kBmyaApCOEQ-8" target="9paTq_0o_kBmyaApCOEQ-9">
          <mxGeometry width="50" height="50" relative="1" as="geometry">
            <mxPoint x="341" y="307" as="sourcePoint" />
            <mxPoint x="421" y="277" as="targetPoint" />
          </mxGeometry>
        </mxCell>
        <mxCell id="9paTq_0o_kBmyaApCOEQ-36" value="" style="group" vertex="1" connectable="0" parent="1">
          <mxGeometry x="353.25" y="491" width="26" height="6" as="geometry" />
        </mxCell>
        <mxCell id="9paTq_0o_kBmyaApCOEQ-37" value="" style="ellipse;shape=doubleEllipse;whiteSpace=wrap;html=1;aspect=fixed;fillColor=#000000;" vertex="1" parent="9paTq_0o_kBmyaApCOEQ-36">
          <mxGeometry x="-1" width="6" height="6" as="geometry" />
        </mxCell>
        <mxCell id="9paTq_0o_kBmyaApCOEQ-38" value="" style="ellipse;shape=doubleEllipse;whiteSpace=wrap;html=1;aspect=fixed;fillColor=#000000;" vertex="1" parent="9paTq_0o_kBmyaApCOEQ-36">
          <mxGeometry x="10" width="6" height="6" as="geometry" />
        </mxCell>
        <mxCell id="9paTq_0o_kBmyaApCOEQ-39" value="" style="ellipse;shape=doubleEllipse;whiteSpace=wrap;html=1;aspect=fixed;fillColor=#000000;" vertex="1" parent="9paTq_0o_kBmyaApCOEQ-36">
          <mxGeometry x="21" width="6" height="6" as="geometry" />
        </mxCell>
        <mxCell id="9paTq_0o_kBmyaApCOEQ-40" value="&lt;font style=&quot;font-size: 9px;&quot;&gt;0x38A1...4984cc&lt;/font&gt;&lt;div&gt;&lt;font size=&quot;1&quot;&gt;to&lt;/font&gt;&lt;/div&gt;&lt;div&gt;&lt;font style=&quot;font-size: 9px;&quot;&gt;0x1F9B...eDd84c&lt;/font&gt;&lt;br&gt;&lt;/div&gt;" style="text;html=1;align=center;verticalAlign=middle;resizable=0;points=[];autosize=1;strokeColor=none;fillColor=none;" vertex="1" parent="1">
          <mxGeometry x="260.25" y="322" width="90" height="60" as="geometry" />
        </mxCell>
        <mxCell id="9paTq_0o_kBmyaApCOEQ-41" value="RANDAO selected proposer for block n" style="text;html=1;align=center;verticalAlign=middle;whiteSpace=wrap;rounded=0;" vertex="1" parent="1">
          <mxGeometry x="251.5" y="137" width="99" height="20" as="geometry" />
        </mxCell>
        <mxCell id="9paTq_0o_kBmyaApCOEQ-42" value="" style="shape=actor;whiteSpace=wrap;html=1;strokeWidth=2;fillColor=#e1d5e7;strokeColor=#9673a6;" vertex="1" parent="1">
          <mxGeometry x="195.5" y="177" width="40" height="50" as="geometry" />
        </mxCell>
        <mxCell id="9paTq_0o_kBmyaApCOEQ-43" value="" style="group" vertex="1" connectable="0" parent="1">
          <mxGeometry x="366.25" y="209" width="26" height="6" as="geometry" />
        </mxCell>
        <mxCell id="9paTq_0o_kBmyaApCOEQ-44" value="" style="ellipse;shape=doubleEllipse;whiteSpace=wrap;html=1;aspect=fixed;fillColor=#000000;" vertex="1" parent="9paTq_0o_kBmyaApCOEQ-43">
          <mxGeometry x="-1" width="6" height="6" as="geometry" />
        </mxCell>
        <mxCell id="9paTq_0o_kBmyaApCOEQ-45" value="" style="ellipse;shape=doubleEllipse;whiteSpace=wrap;html=1;aspect=fixed;fillColor=#000000;" vertex="1" parent="9paTq_0o_kBmyaApCOEQ-43">
          <mxGeometry x="10" width="6" height="6" as="geometry" />
        </mxCell>
        <mxCell id="9paTq_0o_kBmyaApCOEQ-46" value="" style="ellipse;shape=doubleEllipse;whiteSpace=wrap;html=1;aspect=fixed;fillColor=#000000;" vertex="1" parent="9paTq_0o_kBmyaApCOEQ-43">
          <mxGeometry x="21" width="6" height="6" as="geometry" />
        </mxCell>
        <mxCell id="9paTq_0o_kBmyaApCOEQ-47" value="" style="shape=actor;whiteSpace=wrap;html=1;strokeWidth=2;fillColor=#e1d5e7;strokeColor=#9673a6;" vertex="1" parent="1">
          <mxGeometry x="415" y="177" width="40" height="50" as="geometry" />
        </mxCell>
        <mxCell id="9paTq_0o_kBmyaApCOEQ-48" value="" style="endArrow=classic;html=1;rounded=0;entryX=0.5;entryY=1;entryDx=0;entryDy=0;exitX=0.5;exitY=0;exitDx=0;exitDy=0;" edge="1" parent="1" source="9paTq_0o_kBmyaApCOEQ-12" target="9paTq_0o_kBmyaApCOEQ-10">
          <mxGeometry width="50" height="50" relative="1" as="geometry">
            <mxPoint x="125.5" y="432" as="sourcePoint" />
            <mxPoint x="241" y="367" as="targetPoint" />
          </mxGeometry>
        </mxCell>
        <mxCell id="9paTq_0o_kBmyaApCOEQ-49" value="" style="endArrow=classic;html=1;rounded=0;entryX=0.5;entryY=1;entryDx=0;entryDy=0;exitX=0.5;exitY=0;exitDx=0;exitDy=0;" edge="1" parent="1" source="9paTq_0o_kBmyaApCOEQ-15" target="9paTq_0o_kBmyaApCOEQ-11">
          <mxGeometry width="50" height="50" relative="1" as="geometry">
            <mxPoint x="185.5" y="432" as="sourcePoint" />
            <mxPoint x="235.5" y="382" as="targetPoint" />
          </mxGeometry>
        </mxCell>
        <mxCell id="9paTq_0o_kBmyaApCOEQ-50" value="" style="endArrow=classic;html=1;rounded=0;entryX=0.5;entryY=1;entryDx=0;entryDy=0;exitX=0.494;exitY=-0.052;exitDx=0;exitDy=0;exitPerimeter=0;" edge="1" parent="1" source="9paTq_0o_kBmyaApCOEQ-12" target="9paTq_0o_kBmyaApCOEQ-11">
          <mxGeometry width="50" height="50" relative="1" as="geometry">
            <mxPoint x="125.5" y="432" as="sourcePoint" />
            <mxPoint x="131" y="367" as="targetPoint" />
          </mxGeometry>
        </mxCell>
        <mxCell id="9paTq_0o_kBmyaApCOEQ-51" value="" style="endArrow=classic;html=1;rounded=0;exitX=0.5;exitY=0;exitDx=0;exitDy=0;entryX=0.5;entryY=1;entryDx=0;entryDy=0;" edge="1" parent="1" source="9paTq_0o_kBmyaApCOEQ-14" target="9paTq_0o_kBmyaApCOEQ-10">
          <mxGeometry width="50" height="50" relative="1" as="geometry">
            <mxPoint x="221" y="437" as="sourcePoint" />
            <mxPoint x="271" y="387" as="targetPoint" />
          </mxGeometry>
        </mxCell>
        <mxCell id="9paTq_0o_kBmyaApCOEQ-52" value="" style="endArrow=classic;html=1;rounded=0;exitX=0.5;exitY=0;exitDx=0;exitDy=0;" edge="1" parent="1" source="9paTq_0o_kBmyaApCOEQ-14">
          <mxGeometry width="50" height="50" relative="1" as="geometry">
            <mxPoint x="241" y="433" as="sourcePoint" />
            <mxPoint x="371" y="367" as="targetPoint" />
          </mxGeometry>
        </mxCell>
        <mxCell id="9paTq_0o_kBmyaApCOEQ-53" value="" style="endArrow=classic;html=1;rounded=0;exitX=0.5;exitY=0;exitDx=0;exitDy=0;entryX=0.5;entryY=1;entryDx=0;entryDy=0;" edge="1" parent="1" source="9paTq_0o_kBmyaApCOEQ-13" target="9paTq_0o_kBmyaApCOEQ-9">
          <mxGeometry width="50" height="50" relative="1" as="geometry">
            <mxPoint x="321" y="437" as="sourcePoint" />
            <mxPoint x="371" y="387" as="targetPoint" />
          </mxGeometry>
        </mxCell>
        <mxCell id="9paTq_0o_kBmyaApCOEQ-54" value="" style="endArrow=classic;html=1;rounded=0;exitX=0.5;exitY=0;exitDx=0;exitDy=0;" edge="1" parent="1" source="9paTq_0o_kBmyaApCOEQ-13">
          <mxGeometry width="50" height="50" relative="1" as="geometry">
            <mxPoint x="301" y="437" as="sourcePoint" />
            <mxPoint x="371" y="367" as="targetPoint" />
          </mxGeometry>
        </mxCell>
        <mxCell id="9paTq_0o_kBmyaApCOEQ-55" value="" style="endArrow=classic;html=1;rounded=0;exitX=0.5;exitY=0;exitDx=0;exitDy=0;entryX=0.5;entryY=1;entryDx=0;entryDy=0;" edge="1" parent="1" source="9paTq_0o_kBmyaApCOEQ-13" target="9paTq_0o_kBmyaApCOEQ-10">
          <mxGeometry width="50" height="50" relative="1" as="geometry">
            <mxPoint x="195.5" y="413" as="sourcePoint" />
            <mxPoint x="245.5" y="363" as="targetPoint" />
          </mxGeometry>
        </mxCell>
        <mxCell id="9paTq_0o_kBmyaApCOEQ-56" value="" style="endArrow=classic;html=1;rounded=0;exitX=0.5;exitY=0;exitDx=0;exitDy=0;entryX=0.5;entryY=1;entryDx=0;entryDy=0;" edge="1" parent="1" source="9paTq_0o_kBmyaApCOEQ-16" target="9paTq_0o_kBmyaApCOEQ-9">
          <mxGeometry width="50" height="50" relative="1" as="geometry">
            <mxPoint x="399.25" y="432" as="sourcePoint" />
            <mxPoint x="431" y="387" as="targetPoint" />
          </mxGeometry>
        </mxCell>
        <mxCell id="9paTq_0o_kBmyaApCOEQ-57" value="" style="endArrow=classic;html=1;rounded=0;" edge="1" parent="1">
          <mxGeometry width="50" height="50" relative="1" as="geometry">
            <mxPoint x="371" y="457" as="sourcePoint" />
            <mxPoint x="371" y="367" as="targetPoint" />
          </mxGeometry>
        </mxCell>
        <mxCell id="9paTq_0o_kBmyaApCOEQ-58" value="" style="endArrow=none;html=1;rounded=0;" edge="1" parent="1">
          <mxGeometry width="50" height="50" relative="1" as="geometry">
            <mxPoint x="500.75" y="307" as="sourcePoint" />
            <mxPoint x="550.75" y="257" as="targetPoint" />
          </mxGeometry>
        </mxCell>
        <mxCell id="9paTq_0o_kBmyaApCOEQ-59" value="" style="endArrow=none;html=1;rounded=0;" edge="1" parent="1">
          <mxGeometry width="50" height="50" relative="1" as="geometry">
            <mxPoint x="501" y="307" as="sourcePoint" />
            <mxPoint x="571" y="277" as="targetPoint" />
          </mxGeometry>
        </mxCell>
        <mxCell id="9paTq_0o_kBmyaApCOEQ-60" value="&lt;b&gt;Header&lt;/b&gt;&lt;div&gt;Parent block&#39;s hash&lt;/div&gt;&lt;div&gt;Timestamp&lt;/div&gt;&lt;div&gt;Builder signature&lt;/div&gt;&lt;div&gt;Bid value&lt;/div&gt;" style="rounded=1;whiteSpace=wrap;html=1;" vertex="1" parent="1">
          <mxGeometry x="504.75" y="197" width="120" height="80" as="geometry" />
        </mxCell>
        <mxCell id="9paTq_0o_kBmyaApCOEQ-61" value="&lt;h3&gt;&lt;font style=&quot;color: light-dark(rgb(151, 115, 166), rgb(105, 70, 122));&quot;&gt;Proposers&lt;/font&gt;&lt;/h3&gt;" style="text;html=1;align=center;verticalAlign=middle;resizable=0;points=[];autosize=1;strokeColor=none;fillColor=none;" vertex="1" parent="1">
          <mxGeometry x="15.25" y="187" width="90" height="60" as="geometry" />
        </mxCell>
        <mxCell id="9paTq_0o_kBmyaApCOEQ-62" value="&lt;h3&gt;&lt;font style=&quot;color: light-dark(rgb(110, 145, 191), rgb(105, 70, 122));&quot;&gt;Builders&lt;/font&gt;&lt;/h3&gt;" style="text;html=1;align=center;verticalAlign=middle;resizable=0;points=[];autosize=1;strokeColor=none;fillColor=none;" vertex="1" parent="1">
          <mxGeometry x="20.25" y="322" width="80" height="60" as="geometry" />
        </mxCell>
        <mxCell id="9paTq_0o_kBmyaApCOEQ-63" value="&lt;h3&gt;&lt;font style=&quot;color: light-dark(rgb(214, 182, 86), rgb(105, 70, 122));&quot;&gt;Users&lt;/font&gt;&lt;/h3&gt;" style="text;html=1;align=center;verticalAlign=middle;resizable=0;points=[];autosize=1;strokeColor=none;fillColor=none;" vertex="1" parent="1">
          <mxGeometry x="30.25" y="464" width="60" height="60" as="geometry" />
        </mxCell>
        <mxCell id="9paTq_0o_kBmyaApCOEQ-64" value="" style="shape=image;html=1;verticalAlign=top;verticalLabelPosition=bottom;labelBackgroundColor=#ffffff;imageAspect=0;aspect=fixed;image=https://cdn0.iconfinder.com/data/icons/basic-e-commerce-line/48/Receipt_success-128.png" vertex="1" parent="1">
          <mxGeometry x="105.25" y="407" width="17.25" height="17.25" as="geometry" />
        </mxCell>
      </root>
    </mxGraphModel>
  </diagram>
</mxfile>
